<svg id="Content" xmlns="http://www.w3.org/2000/svg" viewBox="0 0 2328.6 396.24"><defs><style>.cls-1{fill:#93f;}</style></defs><path class="cls-1" d="M948.68,193.62H916.9V142.86h31.78v-27.5c0-51.6,36-80.79,80.79-80.79,16.07,0,27.5,1.69,36.8,4.65V90.4c-6.76-2.53-14.38-3.8-23.69-3.8-24.95,0-35.95,10.15-35.95,36v20.31h59.64v50.76h-59.64V354.36h-58Z"/><path class="cls-1" d="M1866.55,138.2c55.42,0,104.06,35.54,104.06,104.07a190.68,190.68,0,0,1-.84,19.88H1811.56c3.38,28.34,28.34,44,56.26,44,26.23,0,45.26-12.27,54.57-26.65l43.15,32.15C1946.08,340,1911.81,359,1867.4,359c-63,0-112.1-43.57-112.1-110.41C1755.3,186,1802.26,138.2,1866.55,138.2Zm-52.87,84.61h99c-5.08-25-26.23-36.81-47.8-36.81S1819.17,197,1813.68,222.81Z"/><path class="cls-1" d="M2009.23,37.11h57.95V354.36h-57.95Z"/><path class="cls-1" d="M2193.32,359c-54.57,0-93.49-30.46-95.6-71.91h60.49c2.11,18.61,18.19,27.49,36.8,27.49,18.19,0,27.5-6.77,27.5-16.92,0-11-8-16.5-26.65-21.15l-39.77-10.15c-36.8-9.31-53.72-34.69-53.72-65.57,0-36.38,32.15-62.61,85-62.61,46.53,0,82.06,24.54,85.45,66.84h-58.38c-3-16.07-15.23-21.57-27.92-21.57-14.8,0-25,5.92-25,16.07,0,11.85,11.42,16.5,24.11,19.46l37.22,10.15c41.46,10.58,58.8,32.57,58.8,65.57C2281.73,334.48,2244.5,359,2193.32,359Z"/><path class="cls-1" d="M1191.22,361.67c51.18,0,93.9-39.88,93.9-96.14V142.86h-57.95V255.8c0,31.73-11,50.34-36,50.34h0c-25,0-36-18.61-36-50.34V142.86h-58V265.53c0,56.26,42.72,96.14,93.91,96.14"/><path class="cls-1" d="M1410.07,135.55c-51.19,0-93.91,39.88-93.91,96.14V354.36h57.95V241.42c0-31.73,11-50.34,36-50.34h0c25,0,36,18.61,36,50.34V354.36h58V231.69c0-56.26-42.73-96.14-93.91-96.14"/><path class="cls-1" d="M1630.11,135.55c-51.19,0-93.91,39.88-93.91,96.14V354.36h58V241.42c0-31.73,11-50.34,36-50.34h0c25,0,36,18.61,36,50.34V354.36h58V231.69c0-56.26-42.73-96.14-93.91-96.14"/><path class="cls-1" d="M159,359.22c-62.6,0-112.09-46.53-112.09-110.4S96.36,138.41,159,138.41c44,0,82.07,24.53,100.26,60.91L208.88,226.4c-8.46-19.46-26.65-33.85-49.92-33.85-30.45,0-53.72,23.69-53.72,56.27s23.27,56.26,53.72,56.26c23.27,0,41.46-14.39,49.92-33.85l50.34,27.08C241,334.69,203,359.22,159,359.22Z"/><path class="cls-1" d="M288.54,37.31h57.95V167.17c11-16.92,33-28.76,60.49-28.76,51.18,0,81.64,37.22,81.64,92.22V354.57H430.67V240.35c0-30.45-13.12-49.06-37.23-49.06-26.65,0-46.95,19.45-46.95,60.06V354.57H288.54Z"/><path class="cls-1" d="M793.12,193.82h-47V143.06h47V62.27h58v80.79h43.7v50.76h-43.7V354.57h-58Z"/><path class="cls-1" d="M733.62,354.36V244.54A109.82,109.82,0,1,0,623.81,354.36ZM677,245.75h0a52,52,0,0,1-52,52h0c-29.19,0-53.85-23-54.37-52.19a53.18,53.18,0,0,1,54.15-54.16C654,191.9,677,216.56,677,245.75Z"/></svg>