<svg id="Layer_1" data-name="Layer 1" xmlns="http://www.w3.org/2000/svg" viewBox="0 0 300 300">
  <defs>
    <style>
      .cls-1 {
        fill: #944ae8;
      }

      .cls-2 {
        fill: #fff;
      }
    </style>
  </defs>
  <rect class="cls-1" width="300" height="300"/>
  <g>
    <g>
      <path class="cls-2" d="M233.05,169a59.76,59.76,0,0,0-56.8-41.26H158V113.23a19.76,19.76,0,1,0-16,0v14.51H123.75A59.76,59.76,0,0,0,67,169a18.68,18.68,0,0,0,0,37,59.75,59.75,0,0,0,56.8,41.25H155.9L201,271.29a3.2,3.2,0,0,0,4.32-4.35l-12-22.22A59.87,59.87,0,0,0,233.05,206a18.68,18.68,0,0,0,0-37Zm-56.8,68.55h-52.5a50.08,50.08,0,0,1,0-100.15h52.5a50.08,50.08,0,0,1,0,100.15Z"/>
      <circle class="cls-2" cx="111.21" cy="176.25" r="17.86"/>
      <circle class="cls-2" cx="169.13" cy="176.25" r="17.86"/>
    </g>
    <g>
      <path class="cls-2" d="M114.28,98.79H86.77a3.62,3.62,0,1,1,0-7.24h27.51a3.62,3.62,0,0,1,0,7.24Z"/>
      <path class="cls-2" d="M213.23,98.79H185.72a3.62,3.62,0,0,1,0-7.24h27.51a3.62,3.62,0,0,1,0,7.24Z"/>
    </g>
    <path class="cls-2" d="M124.74,73.54a3.65,3.65,0,0,1-2.56-1.06L102.73,53a3.62,3.62,0,1,1,5.12-5.12L127.3,67.36a3.62,3.62,0,0,1-2.56,6.18Z"/>
    <path class="cls-2" d="M175.26,73.54a3.62,3.62,0,0,1-2.56-6.18L192.15,47.9A3.62,3.62,0,0,1,197.27,53L177.82,72.48A3.65,3.65,0,0,1,175.26,73.54Z"/>
    <path class="cls-2" d="M150,63.08a3.63,3.63,0,0,1-3.62-3.62V31.94a3.62,3.62,0,1,1,7.24,0V59.46A3.63,3.63,0,0,1,150,63.08Z"/>
  </g>
</svg>
